<svg xmlns="http://www.w3.org/2000/svg" width="24.781" height="20" viewBox="0 0 24.781 20">
  <metadata><?xpacket begin="﻿" id="W5M0MpCehiHzreSzNTczkc9d"?>
<x:xmpmeta xmlns:x="adobe:ns:meta/" x:xmptk="Adobe XMP Core 5.6-c140 79.160451, 2017/05/06-01:08:21        ">
   <rdf:RDF xmlns:rdf="http://www.w3.org/1999/02/22-rdf-syntax-ns#">
      <rdf:Description rdf:about=""/>
   </rdf:RDF>
</x:xmpmeta>
<?xpacket end="w"?></metadata>
<defs>
    <style>
      .cls-1 {
        fill: #f5d76e;
        fill-rule: evenodd;
      }
    </style>
  </defs>
  <path id="twitter-icon" class="cls-1" d="M657.723,3291.37a10.275,10.275,0,0,1-2.925.78,5.057,5.057,0,0,0,2.233-2.78,10.028,10.028,0,0,1-3.224,1.22,5.089,5.089,0,0,0-8.794,3.45,5.715,5.715,0,0,0,.126,1.16,14.459,14.459,0,0,1-10.476-5.29,5.03,5.03,0,0,0,1.573,6.75,5.063,5.063,0,0,1-2.3-.64v0.07a5.056,5.056,0,0,0,4.074,4.95,5.378,5.378,0,0,1-1.337.17,6.066,6.066,0,0,1-.96-0.08,5.09,5.09,0,0,0,4.751,3.5,10.219,10.219,0,0,1-6.308,2.16c-0.425,0-.818-0.02-1.227-0.06a14.491,14.491,0,0,0,7.8,2.26,14.308,14.308,0,0,0,14.456-14.36c0-.22,0-0.43-0.016-0.65A10.905,10.905,0,0,0,657.723,3291.37Z" transform="translate(-632.938 -3289)"/>
</svg>
