<svg xmlns="http://www.w3.org/2000/svg" width="24.156" height="24" viewBox="0 0 24.156 24">
  <metadata><?xpacket begin="﻿" id="W5M0MpCehiHzreSzNTczkc9d"?>
<x:xmpmeta xmlns:x="adobe:ns:meta/" x:xmptk="Adobe XMP Core 5.6-c140 79.160451, 2017/05/06-01:08:21        ">
   <rdf:RDF xmlns:rdf="http://www.w3.org/1999/02/22-rdf-syntax-ns#">
      <rdf:Description rdf:about=""/>
   </rdf:RDF>
</x:xmpmeta>
<?xpacket end="w"?></metadata>
<defs>
    <style>
      .cls-1 {
        fill: #ffffff;
        fill-rule: evenodd;
      }
    </style>
  </defs>
  <path id="Instagram-icon" class="cls-1" d="M708.256,3307.27a0.949,0.949,0,0,1-.96.95H690.48a0.948,0.948,0,0,1-.959-0.95v-10.12h2.218a6.746,6.746,0,0,0-.315,2.04,7.517,7.517,0,0,0,15.023,0,6.746,6.746,0,0,0-.315-2.04h2.124v10.12Zm-4.468-8.33a4.856,4.856,0,1,1-4.86-4.67A4.772,4.772,0,0,1,703.788,3298.94Zm4.468-5.62a1.088,1.088,0,0,1-1.085,1.08h-2.738a1.088,1.088,0,0,1-1.085-1.08v-2.58a1.088,1.088,0,0,1,1.085-1.08h2.738a1.088,1.088,0,0,1,1.085,1.08v2.58Zm2.737-3.25a3.1,3.1,0,0,0-3.1-3.08H689.93a3.1,3.1,0,0,0-3.1,3.08v17.84a3.1,3.1,0,0,0,3.1,3.08h17.964a3.1,3.1,0,0,0,3.1-3.08v-17.84Z" transform="translate(-686.844 -3287)"/>
</svg>
